<svg width="64" height="59" viewBox="0 0 64 59" fill="none" xmlns="http://www.w3.org/2000/svg">
<path d="M52.9486 32.4082C55.9123 32.4082 57.372 36.0072 55.2452 38.0673L35.644 57.0505C34.3542 58.2994 32.6262 59 30.8268 59H8.14124C5.17755 59 3.71786 55.401 5.84463 53.3409L25.4434 34.3577C26.7357 33.1064 28.4637 32.4082 30.2606 32.4082H52.9486Z" fill="#95ED7F" fill-opacity="0.8"/>
<path d="M53.5931 15.9258C56.5544 15.9258 58.0165 19.5248 55.8873 21.5873L36.5765 40.2903C35.1021 41.7186 33.1254 42.52 31.0676 42.52H8.78329C5.82206 42.52 4.3599 38.921 6.48667 36.8609L26.0879 17.8752C27.3802 16.6264 29.1058 15.9258 30.9051 15.9258H53.5931Z" fill="#95ED7F" fill-opacity="0.8"/>
<path d="M52.9486 0C55.9123 0 57.372 3.599 55.2452 5.65908L35.644 24.6423C34.3542 25.8936 32.6262 26.5918 30.8268 26.5918H8.14124C5.17755 26.5918 3.71786 22.9928 5.84463 20.9327L25.4434 1.94946C26.7357 0.698167 28.4637 0 30.2606 0H52.9486Z" fill="#95ED7F" fill-opacity="0.8"/>
</svg>
