<svg width="65" height="59" viewBox="0 0 65 59" fill="none" xmlns="http://www.w3.org/2000/svg">
<path d="M53.2826 32.4082C56.2463 32.4082 57.706 36.0072 55.5792 38.0673L35.978 57.0505C34.6881 58.2994 32.9601 59 31.1608 59H8.47523C5.51153 59 4.05184 55.401 6.17861 53.3409L25.7774 34.3577C27.0697 33.1064 28.7977 32.4082 30.5946 32.4082H53.2826Z" fill="white" fill-opacity="0.8"/>
<path d="M53.9271 15.9258C56.8883 15.9258 58.3505 19.5248 56.2213 21.5873L36.9105 40.2903C35.436 41.7186 33.4594 42.52 31.4016 42.52H9.11727C6.15604 42.52 4.69389 38.921 6.82066 36.8609L26.4219 17.8752C27.7142 16.6264 29.4397 15.9258 31.2391 15.9258H53.9271Z" fill="white" fill-opacity="0.8"/>
<path d="M53.2826 0C56.2463 0 57.706 3.599 55.5792 5.65908L35.978 24.6423C34.6881 25.8936 32.9601 26.5918 31.1608 26.5918H8.47523C5.51153 26.5918 4.05184 22.9928 6.17861 20.9327L25.7774 1.94946C27.0697 0.698167 28.7977 0 30.5946 0H53.2826Z" fill="white" fill-opacity="0.8"/>
</svg>
