<svg width="65" height="59" viewBox="0 0 65 59" fill="none" xmlns="http://www.w3.org/2000/svg">
<path d="M53.6146 32.4082C56.5783 32.4082 58.038 36.0072 55.9113 38.0673L36.31 57.0505C35.0202 58.2994 33.2922 59 31.4928 59H8.80726C5.84357 59 4.38387 55.401 6.51064 53.3409L26.1094 34.3577C27.4017 33.1064 29.1297 32.4082 30.9266 32.4082H53.6146Z" fill="#27FF59" fill-opacity="0.8"/>
<path d="M54.2591 15.9258C57.2204 15.9258 58.6825 19.5248 56.5533 21.5873L37.2425 40.2903C35.7681 41.7186 33.7915 42.52 31.7336 42.52H9.4493C6.48807 42.52 5.02592 38.921 7.15269 36.8609L26.7539 17.8752C28.0462 16.6264 29.7718 15.9258 31.5712 15.9258H54.2591Z" fill="#27FF59" fill-opacity="0.8"/>
<path d="M53.6146 0C56.5783 0 58.038 3.599 55.9113 5.65908L36.31 24.6423C35.0202 25.8936 33.2922 26.5918 31.4928 26.5918H8.80726C5.84357 26.5918 4.38387 22.9928 6.51064 20.9327L26.1094 1.94946C27.4017 0.698167 29.1297 0 30.9266 0H53.6146Z" fill="#27FF59" fill-opacity="0.8"/>
</svg>
