<svg width="176" height="34" viewBox="0 0 176 34" fill="none" xmlns="http://www.w3.org/2000/svg">
<g clip-path="url(#clip0_1334_412)">
<path d="M25.1785 18.3809C26.5879 18.3809 27.282 20.0889 26.2706 21.0665L16.9494 30.0755C16.336 30.6682 15.5143 31.0007 14.6586 31.0007H3.87064C2.46128 31.0007 1.76713 29.2927 2.7785 28.315L12.0986 19.306C12.7131 18.7122 13.5349 18.3809 14.3894 18.3809H25.1785Z" fill="#95ED7F" fill-opacity="0.8"/>
<path d="M25.4861 10.5586C26.8943 10.5586 27.5896 12.2666 26.577 13.2454L17.3939 22.1214C16.6928 22.7993 15.7528 23.1796 14.7742 23.1796H4.17703C2.76884 23.1796 2.07352 21.4716 3.08489 20.4939L12.4061 11.4838C13.0207 10.8911 13.8412 10.5586 14.6969 10.5586H25.4861Z" fill="#95ED7F" fill-opacity="0.8"/>
<path d="M25.1785 3C26.5879 3 27.282 4.708 26.2706 5.68567L16.9494 14.6947C16.336 15.2885 15.5143 15.6198 14.6586 15.6198H3.87064C2.46128 15.6198 1.76713 13.9118 2.7785 12.9342L12.0986 3.92517C12.7131 3.33133 13.5349 3 14.3894 3H25.1785Z" fill="#95ED7F" fill-opacity="0.8"/>
</g>
<path d="M46.3986 26H43.0236L49.1685 8.54545H53.0719L59.2253 26H55.8503L51.1884 12.125H51.052L46.3986 26ZM46.5094 19.1562H55.714V21.696H46.5094V19.1562ZM64.4732 8.54545V26H61.388V8.54545H64.4732ZM67.6458 30.9091V12.9091H70.6799V15.0739H70.8588C71.0179 14.7557 71.2424 14.4176 71.5321 14.0597C71.8219 13.696 72.214 13.3864 72.7083 13.1307C73.2026 12.8693 73.8333 12.7386 74.6003 12.7386C75.6117 12.7386 76.5236 12.9972 77.3361 13.5142C78.1543 14.0256 78.802 14.7841 79.2793 15.7898C79.7623 16.7898 80.0037 18.017 80.0037 19.4716C80.0037 20.9091 79.7679 22.1307 79.2963 23.1364C78.8248 24.142 78.1827 24.9091 77.3702 25.4375C76.5577 25.9659 75.6373 26.2301 74.6088 26.2301C73.8588 26.2301 73.2367 26.1051 72.7424 25.8551C72.248 25.6051 71.8503 25.304 71.5492 24.9517C71.2537 24.5937 71.0236 24.2557 70.8588 23.9375H70.731V30.9091H67.6458ZM70.6713 19.4545C70.6713 20.3011 70.7907 21.0426 71.0293 21.679C71.2736 22.3153 71.623 22.8125 72.0776 23.1705C72.5378 23.5227 73.0946 23.6989 73.748 23.6989C74.4299 23.6989 75.0009 23.517 75.4611 23.1534C75.9213 22.7841 76.2679 22.2812 76.5009 21.6449C76.7395 21.0028 76.8588 20.2727 76.8588 19.4545C76.8588 18.642 76.7424 17.9205 76.5094 17.2898C76.2765 16.6591 75.9299 16.1648 75.4696 15.8068C75.0094 15.4489 74.4355 15.2699 73.748 15.2699C73.089 15.2699 72.5293 15.4432 72.0691 15.7898C71.6088 16.1364 71.2594 16.6222 71.0208 17.2472C70.7878 17.8722 70.6713 18.608 70.6713 19.4545ZM85.731 18.3295V26H82.6458V8.54545H85.6628V15.1335H85.8162C86.123 14.3949 86.5975 13.8125 87.2395 13.3864C87.8873 12.9545 88.7111 12.7386 89.7111 12.7386C90.6202 12.7386 91.4128 12.929 92.089 13.3097C92.7651 13.6903 93.2878 14.2472 93.6571 14.9801C94.0321 15.7131 94.2196 16.608 94.2196 17.6648V26H91.1344V18.142C91.1344 17.2614 90.9071 16.5767 90.4526 16.0881C90.0037 15.5937 89.373 15.3466 88.5605 15.3466C88.0151 15.3466 87.5265 15.4659 87.0946 15.7045C86.6685 15.9375 86.3333 16.2756 86.089 16.7188C85.8503 17.1619 85.731 17.6989 85.731 18.3295ZM101.132 26.2642C100.302 26.2642 99.5549 26.1165 98.8901 25.821C98.231 25.5199 97.7083 25.0767 97.3219 24.4915C96.9412 23.9062 96.7509 23.1847 96.7509 22.3267C96.7509 21.5881 96.8873 20.9773 97.16 20.4943C97.4327 20.0114 97.8049 19.625 98.2765 19.3352C98.748 19.0455 99.2793 18.8267 99.8702 18.679C100.467 18.5256 101.083 18.4148 101.72 18.3466C102.487 18.267 103.109 18.196 103.586 18.1335C104.063 18.0653 104.41 17.9631 104.626 17.8267C104.847 17.6847 104.958 17.4659 104.958 17.1705V17.1193C104.958 16.4773 104.768 15.9801 104.387 15.6278C104.007 15.2756 103.458 15.0994 102.742 15.0994C101.987 15.0994 101.387 15.2642 100.944 15.5938C100.507 15.9233 100.211 16.3125 100.058 16.7614L97.177 16.3523C97.4043 15.5568 97.7793 14.892 98.302 14.358C98.8248 13.8182 99.464 13.4148 100.22 13.1477C100.975 12.875 101.811 12.7386 102.725 12.7386C103.356 12.7386 103.984 12.8125 104.609 12.9602C105.234 13.108 105.805 13.3523 106.322 13.6932C106.839 14.0284 107.254 14.4858 107.566 15.0653C107.884 15.6449 108.044 16.3693 108.044 17.2386V26H105.078V24.2017H104.975C104.788 24.5653 104.524 24.9062 104.183 25.2244C103.847 25.5369 103.424 25.7898 102.913 25.983C102.407 26.1705 101.813 26.2642 101.132 26.2642ZM101.933 23.9972C102.552 23.9972 103.089 23.875 103.544 23.6307C103.998 23.3807 104.347 23.0511 104.592 22.642C104.842 22.233 104.967 21.7869 104.967 21.304V19.7614C104.87 19.8409 104.705 19.9148 104.472 19.983C104.245 20.0511 103.99 20.1108 103.705 20.1619C103.421 20.2131 103.14 20.2585 102.862 20.2983C102.583 20.3381 102.342 20.3722 102.137 20.4006C101.677 20.4631 101.265 20.5653 100.901 20.7074C100.538 20.8494 100.251 21.0483 100.041 21.304C99.8304 21.554 99.7253 21.8778 99.7253 22.2756C99.7253 22.8438 99.9327 23.2727 100.347 23.5625C100.762 23.8523 101.291 23.9972 101.933 23.9972ZM126.721 13.3438C126.642 12.5994 126.306 12.0199 125.715 11.6051C125.13 11.1903 124.369 10.983 123.431 10.983C122.772 10.983 122.207 11.0824 121.735 11.2812C121.264 11.4801 120.903 11.75 120.653 12.0909C120.403 12.4318 120.275 12.821 120.269 13.2585C120.269 13.6222 120.352 13.9375 120.517 14.2045C120.687 14.4716 120.917 14.6989 121.207 14.8864C121.497 15.0682 121.818 15.2216 122.17 15.3466C122.522 15.4716 122.877 15.5767 123.235 15.6619L124.872 16.071C125.531 16.2244 126.164 16.4318 126.772 16.6932C127.386 16.9545 127.934 17.2841 128.417 17.6818C128.906 18.0795 129.292 18.5597 129.576 19.1222C129.86 19.6847 130.002 20.3437 130.002 21.0994C130.002 22.1222 129.741 23.0227 129.218 23.8011C128.695 24.5739 127.94 25.179 126.951 25.6165C125.968 26.0483 124.778 26.2642 123.38 26.2642C122.022 26.2642 120.843 26.054 119.843 25.6335C118.849 25.2131 118.07 24.5994 117.508 23.7926C116.951 22.9858 116.65 22.0028 116.605 20.8438H119.715C119.761 21.4517 119.948 21.9574 120.278 22.3608C120.607 22.7642 121.036 23.0653 121.565 23.2642C122.099 23.4631 122.695 23.5625 123.355 23.5625C124.042 23.5625 124.644 23.4602 125.161 23.2557C125.684 23.0455 126.093 22.7557 126.389 22.3864C126.684 22.0114 126.835 21.5739 126.84 21.0739C126.835 20.6193 126.701 20.2443 126.44 19.9489C126.178 19.6477 125.812 19.3977 125.34 19.1989C124.874 18.9943 124.329 18.8125 123.704 18.6534L121.718 18.142C120.281 17.7727 119.144 17.2131 118.309 16.4631C117.48 15.7074 117.065 14.7045 117.065 13.4545C117.065 12.4261 117.343 11.5256 117.9 10.7528C118.463 9.98011 119.227 9.38068 120.193 8.95454C121.159 8.52273 122.252 8.30682 123.474 8.30682C124.713 8.30682 125.798 8.52273 126.73 8.95454C127.667 9.38068 128.403 9.97443 128.937 10.7358C129.471 11.4915 129.747 12.3608 129.764 13.3438H126.721ZM135.77 18.3295V26H132.685V12.9091H135.634V15.1335H135.787C136.088 14.4006 136.568 13.8182 137.227 13.3864C137.892 12.9545 138.713 12.7386 139.691 12.7386C140.594 12.7386 141.381 12.9318 142.051 13.3182C142.727 13.7045 143.25 14.2642 143.619 14.9972C143.994 15.7301 144.179 16.6193 144.173 17.6648V26H141.088V18.142C141.088 17.267 140.861 16.5824 140.406 16.0881C139.958 15.5937 139.335 15.3466 138.54 15.3466C138 15.3466 137.52 15.4659 137.1 15.7045C136.685 15.9375 136.358 16.2756 136.119 16.7188C135.887 17.1619 135.77 17.6989 135.77 18.3295ZM151.077 26.2642C150.247 26.2642 149.5 26.1165 148.835 25.821C148.176 25.5199 147.654 25.0767 147.267 24.4915C146.887 23.9062 146.696 23.1847 146.696 22.3267C146.696 21.5881 146.833 20.9773 147.105 20.4943C147.378 20.0114 147.75 19.625 148.222 19.3352C148.693 19.0455 149.225 18.8267 149.816 18.679C150.412 18.5256 151.029 18.4148 151.665 18.3466C152.432 18.267 153.054 18.196 153.531 18.1335C154.009 18.0653 154.355 17.9631 154.571 17.8267C154.793 17.6847 154.904 17.4659 154.904 17.1705V17.1193C154.904 16.4773 154.713 15.9801 154.333 15.6278C153.952 15.2756 153.404 15.0994 152.688 15.0994C151.932 15.0994 151.333 15.2642 150.889 15.5938C150.452 15.9233 150.156 16.3125 150.003 16.7614L147.122 16.3523C147.35 15.5568 147.725 14.892 148.247 14.358C148.77 13.8182 149.409 13.4148 150.165 13.1477C150.921 12.875 151.756 12.7386 152.671 12.7386C153.301 12.7386 153.929 12.8125 154.554 12.9602C155.179 13.108 155.75 13.3523 156.267 13.6932C156.784 14.0284 157.199 14.4858 157.512 15.0653C157.83 15.6449 157.989 16.3693 157.989 17.2386V26H155.023V24.2017H154.921C154.733 24.5653 154.469 24.9062 154.128 25.2244C153.793 25.5369 153.369 25.7898 152.858 25.983C152.352 26.1705 151.759 26.2642 151.077 26.2642ZM151.878 23.9972C152.497 23.9972 153.034 23.875 153.489 23.6307C153.943 23.3807 154.293 23.0511 154.537 22.642C154.787 22.233 154.912 21.7869 154.912 21.304V19.7614C154.816 19.8409 154.651 19.9148 154.418 19.983C154.191 20.0511 153.935 20.1108 153.651 20.1619C153.367 20.2131 153.085 20.2585 152.807 20.2983C152.529 20.3381 152.287 20.3722 152.083 20.4006C151.622 20.4631 151.21 20.5653 150.847 20.7074C150.483 20.8494 150.196 21.0483 149.986 21.304C149.776 21.554 149.671 21.8778 149.671 22.2756C149.671 22.8438 149.878 23.2727 150.293 23.5625C150.708 23.8523 151.236 23.9972 151.878 23.9972ZM161.091 30.9091V12.9091H164.125V15.0739H164.304C164.463 14.7557 164.688 14.4176 164.977 14.0597C165.267 13.696 165.659 13.3864 166.154 13.1307C166.648 12.8693 167.279 12.7386 168.046 12.7386C169.057 12.7386 169.969 12.9972 170.781 13.5142C171.6 14.0256 172.247 14.7841 172.725 15.7898C173.208 16.7898 173.449 18.017 173.449 19.4716C173.449 20.9091 173.213 22.1307 172.742 23.1364C172.27 24.142 171.628 24.9091 170.816 25.4375C170.003 25.9659 169.083 26.2301 168.054 26.2301C167.304 26.2301 166.682 26.1051 166.188 25.8551C165.693 25.6051 165.296 25.304 164.994 24.9517C164.699 24.5937 164.469 24.2557 164.304 23.9375H164.176V30.9091H161.091ZM164.117 19.4545C164.117 20.3011 164.236 21.0426 164.475 21.679C164.719 22.3153 165.068 22.8125 165.523 23.1705C165.983 23.5227 166.54 23.6989 167.193 23.6989C167.875 23.6989 168.446 23.517 168.906 23.1534C169.367 22.7841 169.713 22.2812 169.946 21.6449C170.185 21.0028 170.304 20.2727 170.304 19.4545C170.304 18.642 170.188 17.9205 169.955 17.2898C169.722 16.6591 169.375 16.1648 168.915 15.8068C168.455 15.4489 167.881 15.2699 167.193 15.2699C166.534 15.2699 165.975 15.4432 165.514 15.7898C165.054 16.1364 164.705 16.6222 164.466 17.2472C164.233 17.8722 164.117 18.608 164.117 19.4545Z" fill="url(#paint0_linear_1334_412)"/>
<defs>
<linearGradient id="paint0_linear_1334_412" x1="17.67" y1="-4.32268e-06" x2="176.202" y2="4.05979" gradientUnits="userSpaceOnUse">
<stop offset="0.427885" stop-color="#7DDA7D"/>
<stop offset="0.839589" stop-color="#DBF5DB"/>
<stop offset="1" stop-color="white"/>
</linearGradient>
<clipPath id="clip0_1334_412">
<rect width="30.4348" height="28" fill="white" transform="translate(0 3)"/>
</clipPath>
</defs>
</svg>
