<svg width="90" height="90" viewBox="0 0 90 90" fill="none" xmlns="http://www.w3.org/2000/svg">
<path d="M36.7294 62.8703L22.4994 77.1303H25.8794C27.5715 77.1303 29.1942 77.8025 30.3907 78.999C31.5872 80.1955 32.2594 81.8182 32.2594 83.5103C32.2594 85.2024 31.5872 86.8252 30.3907 88.0217C29.1942 89.2181 27.5715 89.8903 25.8794 89.8903H6.55938C5.71676 89.8956 4.88137 89.7347 4.10101 89.4168C3.32065 89.0989 2.61062 88.6302 2.01155 88.0377C1.41248 87.4451 0.936116 86.7402 0.609721 85.9634C0.283327 85.1865 0.113302 84.353 0.109375 83.5103V64.3703C0.109375 62.6597 0.788926 61.0191 1.99854 59.8095C3.20815 58.5999 4.84873 57.9203 6.55938 57.9203C8.27002 57.9203 9.9106 58.5999 11.1202 59.8095C12.3298 61.0191 13.0094 62.6597 13.0094 64.3703V67.7503L27.2694 53.4503C28.5291 52.2058 30.2285 51.5078 31.9994 51.5078C33.7702 51.5078 35.4697 52.2058 36.7294 53.4503C37.3516 54.0668 37.8455 54.8004 38.1826 55.6088C38.5197 56.4172 38.6932 57.2844 38.6932 58.1603C38.6932 59.0362 38.5197 59.9034 38.1826 60.7118C37.8455 61.5203 37.3516 62.2539 36.7294 62.8703Z" fill="#99A1AF"/>
<path d="M36.7308 36.7294C35.475 37.9812 33.774 38.6842 32.0008 38.6842C30.2276 38.6842 28.5267 37.9812 27.2708 36.7294L13.0008 22.4994V25.8794C13.0008 27.5741 12.3276 29.1994 11.1292 30.3978C9.93088 31.5961 8.30556 32.2694 6.61083 32.2694C4.9161 32.2694 3.29077 31.5961 2.09242 30.3978C0.894059 29.1994 0.220828 27.5741 0.220828 25.8794V6.55938C0.215561 5.71676 0.37648 4.88137 0.694378 4.10101C1.01228 3.32065 1.48092 2.61062 2.07349 2.01155C2.66606 1.41248 3.37093 0.936116 4.14778 0.609721C4.92463 0.283327 5.75821 0.113302 6.60083 0.109375H25.7708C27.4815 0.109375 29.1221 0.788926 30.3317 1.99854C31.5413 3.20815 32.2208 4.84873 32.2208 6.55938C32.2208 8.27002 31.5413 9.9106 30.3317 11.1202C29.1221 12.3298 27.4815 13.0094 25.7708 13.0094H22.3808L36.7308 27.2694C37.3531 27.8899 37.8468 28.6271 38.1836 29.4388C38.5205 30.2504 38.6939 31.1206 38.6939 31.9994C38.6939 32.8782 38.5205 33.7483 38.1836 34.56C37.8468 35.3716 37.3531 36.1088 36.7308 36.7294Z" fill="#99A1AF"/>
<path d="M89.8004 83.491C89.803 84.3288 89.6406 85.159 89.3224 85.934C89.0042 86.7091 88.5364 87.4139 87.9459 88.0082C87.3553 88.6025 86.6534 89.0746 85.8804 89.3977C85.1073 89.7207 84.2782 89.8883 83.4404 89.891H64.3704C62.7128 89.8255 61.145 89.121 59.9954 87.9251C58.8458 86.7292 58.2037 85.1348 58.2037 83.476C58.2037 81.8171 58.8458 80.2227 59.9954 79.0268C61.145 77.8309 62.7128 77.1264 64.3704 77.061H67.7304L53.4504 62.851C52.8027 62.2396 52.2845 61.5044 51.9264 60.689C51.5683 59.8735 51.3777 58.9945 51.3658 58.1039C51.3539 57.2134 51.5211 56.3296 51.8573 55.5049C52.1935 54.6802 52.6919 53.9314 53.323 53.303C53.9541 52.6746 54.705 52.1793 55.5311 51.8466C56.3572 51.5139 57.2418 51.3506 58.1322 51.3663C59.0227 51.3819 59.9009 51.5763 60.7148 51.9379C61.5288 52.2994 62.2618 52.8208 62.8704 53.471L77.0804 67.621V64.231C77.0804 63.3958 77.2449 62.5687 77.5645 61.7971C77.8841 61.0255 78.3526 60.3244 78.9432 59.7338C79.5337 59.1432 80.2349 58.6747 81.0065 58.3551C81.7781 58.0355 82.6052 57.871 83.4404 57.871C84.2756 57.871 85.1026 58.0355 85.8742 58.3551C86.6458 58.6747 87.347 59.1432 87.9376 59.7338C88.5281 60.3244 88.9966 61.0255 89.3162 61.7971C89.6358 62.5687 89.8004 63.3958 89.8004 64.231V83.491Z" fill="#99A1AF"/>
<path d="M89.8891 25.7494C89.9232 26.6131 89.7825 27.4748 89.4755 28.2829C89.1685 29.091 88.7015 29.8287 88.1024 30.4519C87.5034 31.075 86.7846 31.5708 85.9893 31.9095C85.194 32.2481 84.3385 32.4227 83.4741 32.4227C82.6097 32.4227 81.7542 32.2481 80.9589 31.9095C80.1636 31.5708 79.4448 31.075 78.8458 30.4519C78.2467 29.8287 77.7797 29.091 77.4727 28.2829C77.1657 27.4748 77.025 26.6131 77.0591 25.7494V22.3394L62.8691 36.7294C62.2551 37.3522 61.5233 37.8468 60.7165 38.1844C59.9096 38.522 59.0437 38.6958 58.1691 38.6958C57.2945 38.6958 56.4286 38.522 55.6217 38.1844C54.8149 37.8468 54.0831 37.3522 53.4691 36.7294C52.2154 35.4684 51.5117 33.7625 51.5117 31.9844C51.5117 30.2062 52.2154 28.5004 53.4691 27.2394L67.6191 12.9394H64.2291C62.5716 12.8739 61.0037 12.1694 59.8541 10.9735C58.7045 9.77765 58.0624 8.1832 58.0624 6.52437C58.0624 4.86555 58.7045 3.2711 59.8541 2.07522C61.0037 0.879328 62.5716 0.174831 64.2291 0.109375H83.4891C85.1857 0.11202 86.812 0.787153 88.0117 1.98681C89.2113 3.18647 89.8865 4.8128 89.8891 6.50938V25.7494Z" fill="#99A1AF"/>
</svg>
