<svg width="54" height="41" viewBox="0 0 54 41" fill="none" xmlns="http://www.w3.org/2000/svg">
<path d="M8.11133 23.4248C8.73445 21.6349 11.2665 21.6349 11.8896 23.4248L12.9004 26.3301C13.1802 27.1339 13.9389 27.6729 14.79 27.6729H17.7529C19.7236 27.6729 20.5069 30.2221 18.876 31.3281L16.7207 32.7891C15.9709 33.2975 15.6572 34.247 15.9551 35.1025L16.833 37.625C17.4658 39.4435 15.415 41.0182 13.8213 39.9375L11.123 38.1074C10.4453 37.6479 9.55564 37.6479 8.87793 38.1074L6.17969 39.9375C4.586 41.0182 2.53521 39.4435 3.16797 37.625L4.04688 35.1025C4.34471 34.247 4.03005 33.2975 3.28027 32.7891L1.125 31.3281C-0.50594 30.2221 0.277395 27.6729 2.24805 27.6729H5.21094C6.06205 27.6729 6.82076 27.1339 7.10059 26.3301L8.11133 23.4248ZM34.6113 9.4248C35.2345 7.63487 37.7665 7.63487 38.3896 9.4248L41.085 17.167C41.3648 17.9708 42.1225 18.5098 42.9736 18.5098H51.3867C53.3571 18.5101 54.1397 21.0591 52.5088 22.165L45.9453 26.6152C45.1955 27.1237 44.8809 28.0732 45.1787 28.9287L47.7412 36.2881C48.3741 38.1066 46.3232 39.6813 44.7295 38.6006L37.623 33.7812C36.9453 33.3217 36.0557 33.3217 35.3779 33.7812L28.2715 38.6006C26.6778 39.6813 24.6269 38.1066 25.2598 36.2881L27.8223 28.9287C28.1201 28.0732 27.8054 27.1237 27.0557 26.6152L20.4922 22.165C18.8613 21.0591 19.6439 18.5101 21.6143 18.5098H30.0273C30.8785 18.5098 31.6362 17.9708 31.916 17.167L34.6113 9.4248ZM19.3652 1.32812C19.7349 0.244797 21.2661 0.2448 21.6357 1.32812L22.5811 4.09668C22.7469 4.58237 23.2035 4.90918 23.7168 4.90918H26.6436C27.8201 4.90929 28.2937 6.42624 27.3262 7.0957L25.0605 8.66309C24.6193 8.9684 24.4342 9.53026 24.6074 10.0381L25.4961 12.6436C25.8695 13.7388 24.6294 14.6761 23.6777 14.0176L21.1836 12.291C20.7728 12.0067 20.2282 12.0067 19.8174 12.291L17.3232 14.0176C16.3716 14.6761 15.1315 13.7388 15.5049 12.6436L16.3936 10.0381C16.5668 9.53026 16.3817 8.9684 15.9404 8.66309L13.6748 7.0957C12.7073 6.42624 13.1809 4.90932 14.3574 4.90918H17.2842C17.7974 4.90918 18.254 4.58236 18.4199 4.09668L19.3652 1.32812Z" fill="url(#paint0_linear_1366_638)"/>
<defs>
<linearGradient id="paint0_linear_1366_638" x1="-9.65201" y1="0.51562" x2="53.7332" y2="1.07006" gradientUnits="userSpaceOnUse">
<stop offset="0.427885" stop-color="#7DDA7D"/>
<stop offset="0.839589" stop-color="#DBF5DB"/>
<stop offset="1" stop-color="white"/>
</linearGradient>
</defs>
</svg>
