<svg width="214" height="34" viewBox="0 0 214 34" fill="none" xmlns="http://www.w3.org/2000/svg">
<g clip-path="url(#clip0_1334_425)">
<path d="M25.1785 18.3809C26.5879 18.3809 27.282 20.0889 26.2706 21.0665L16.9494 30.0755C16.336 30.6682 15.5143 31.0007 14.6586 31.0007H3.87064C2.46128 31.0007 1.76713 29.2927 2.7785 28.315L12.0986 19.306C12.7131 18.7122 13.5349 18.3809 14.3894 18.3809H25.1785Z" fill="#95ED7F" fill-opacity="0.8"/>
<path d="M25.4861 10.5586C26.8943 10.5586 27.5896 12.2666 26.577 13.2454L17.3939 22.1214C16.6928 22.7993 15.7528 23.1796 14.7742 23.1796H4.17703C2.76884 23.1796 2.07352 21.4716 3.08489 20.4939L12.4061 11.4838C13.0207 10.8911 13.8412 10.5586 14.6969 10.5586H25.4861Z" fill="#95ED7F" fill-opacity="0.8"/>
<path d="M25.1785 3C26.5879 3 27.282 4.708 26.2706 5.68567L16.9494 14.6947C16.336 15.2885 15.5143 15.6198 14.6586 15.6198H3.87064C2.46128 15.6198 1.76713 13.9118 2.7785 12.9342L12.0986 3.92517C12.7131 3.33133 13.5349 3 14.3894 3H25.1785Z" fill="#95ED7F" fill-opacity="0.8"/>
</g>
<path d="M53.6429 13.3438C53.5634 12.5994 53.2282 12.0199 52.6373 11.6051C52.052 11.1903 51.2907 10.983 50.3532 10.983C49.6941 10.983 49.1287 11.0824 48.6571 11.2812C48.1855 11.4801 47.8248 11.75 47.5748 12.0909C47.3248 12.4318 47.1969 12.821 47.1912 13.2585C47.1912 13.6222 47.2736 13.9375 47.4384 14.2045C47.6088 14.4716 47.839 14.6989 48.1287 14.8864C48.4185 15.0682 48.7395 15.2216 49.0918 15.3466C49.4441 15.4716 49.7992 15.5767 50.1571 15.6619L51.7935 16.071C52.4526 16.2244 53.0861 16.4318 53.6941 16.6932C54.3077 16.9545 54.856 17.2841 55.339 17.6818C55.8276 18.0795 56.214 18.5597 56.498 19.1222C56.7821 19.6847 56.9242 20.3437 56.9242 21.0994C56.9242 22.1222 56.6628 23.0227 56.1401 23.8011C55.6174 24.5739 54.8617 25.179 53.873 25.6165C52.8901 26.0483 51.6998 26.2642 50.302 26.2642C48.9441 26.2642 47.7651 26.054 46.7651 25.6335C45.7708 25.2131 44.9924 24.5994 44.4299 23.7926C43.873 22.9858 43.5719 22.0028 43.5265 20.8438H46.6373C46.6827 21.4517 46.8702 21.9574 47.1998 22.3608C47.5293 22.7642 47.9583 23.0653 48.4867 23.2642C49.0208 23.4631 49.6174 23.5625 50.2765 23.5625C50.964 23.5625 51.5662 23.4602 52.0833 23.2557C52.606 23.0455 53.0151 22.7557 53.3105 22.3864C53.606 22.0114 53.7566 21.5739 53.7623 21.0739C53.7566 20.6193 53.623 20.2443 53.3617 19.9489C53.1003 19.6477 52.7338 19.3977 52.2623 19.1989C51.7963 18.9943 51.2509 18.8125 50.6259 18.6534L48.6401 18.142C47.2026 17.7727 46.0662 17.2131 45.231 16.4631C44.4015 15.7074 43.9867 14.7045 43.9867 13.4545C43.9867 12.4261 44.2651 11.5256 44.8219 10.7528C45.3844 9.98011 46.1486 9.38068 47.1145 8.95454C48.0804 8.52273 49.1742 8.30682 50.3958 8.30682C51.6344 8.30682 52.7196 8.52273 53.6515 8.95454C54.589 9.38068 55.3248 9.97443 55.8588 10.7358C56.3929 11.4915 56.6685 12.3608 56.6855 13.3438H53.6429ZM62.6919 18.3295V26H59.6067V12.9091H62.5556V15.1335H62.709C63.0101 14.4006 63.4902 13.8182 64.1493 13.3864C64.8141 12.9545 65.6351 12.7386 66.6124 12.7386C67.5158 12.7386 68.3027 12.9318 68.9732 13.3182C69.6493 13.7045 70.1721 14.2642 70.5414 14.9972C70.9164 15.7301 71.101 16.6193 71.0953 17.6648V26H68.0101V18.142C68.0101 17.267 67.7828 16.5824 67.3283 16.0881C66.8794 15.5937 66.2573 15.3466 65.4618 15.3466C64.9221 15.3466 64.4419 15.4659 64.0215 15.7045C63.6067 15.9375 63.28 16.2756 63.0414 16.7188C62.8084 17.1619 62.6919 17.6989 62.6919 18.3295ZM77.9988 26.2642C77.1692 26.2642 76.4221 26.1165 75.7573 25.821C75.0982 25.5199 74.5755 25.0767 74.1891 24.4915C73.8084 23.9062 73.6181 23.1847 73.6181 22.3267C73.6181 21.5881 73.7544 20.9773 74.0272 20.4943C74.2999 20.0114 74.6721 19.625 75.1436 19.3352C75.6152 19.0455 76.1465 18.8267 76.7374 18.679C77.334 18.5256 77.9505 18.4148 78.5868 18.3466C79.3539 18.267 79.976 18.196 80.4533 18.1335C80.9306 18.0653 81.2772 17.9631 81.4931 17.8267C81.7147 17.6847 81.8255 17.4659 81.8255 17.1705V17.1193C81.8255 16.4773 81.6351 15.9801 81.2544 15.6278C80.8738 15.2756 80.3255 15.0994 79.6096 15.0994C78.8539 15.0994 78.2544 15.2642 77.8113 15.5938C77.3738 15.9233 77.0783 16.3125 76.9249 16.7614L74.0442 16.3523C74.2715 15.5568 74.6465 14.892 75.1692 14.358C75.6919 13.8182 76.3311 13.4148 77.0868 13.1477C77.8425 12.875 78.6777 12.7386 79.5925 12.7386C80.2232 12.7386 80.851 12.8125 81.476 12.9602C82.101 13.108 82.6721 13.3523 83.1891 13.6932C83.7061 14.0284 84.1209 14.4858 84.4334 15.0653C84.7516 15.6449 84.9107 16.3693 84.9107 17.2386V26H81.9448V24.2017H81.8425C81.655 24.5653 81.3908 24.9062 81.0499 25.2244C80.7147 25.5369 80.2914 25.7898 79.78 25.983C79.2743 26.1705 78.6806 26.2642 77.9988 26.2642ZM78.7999 23.9972C79.4192 23.9972 79.9561 23.875 80.4107 23.6307C80.8652 23.3807 81.2147 23.0511 81.459 22.642C81.709 22.233 81.834 21.7869 81.834 21.304V19.7614C81.7374 19.8409 81.5726 19.9148 81.3397 19.983C81.1124 20.0511 80.8567 20.1108 80.5726 20.1619C80.2885 20.2131 80.0073 20.2585 79.7289 20.2983C79.4505 20.3381 79.209 20.3722 79.0044 20.4006C78.5442 20.4631 78.1323 20.5653 77.7686 20.7074C77.405 20.8494 77.1181 21.0483 76.9078 21.304C76.6976 21.554 76.5925 21.8778 76.5925 22.2756C76.5925 22.8438 76.7999 23.2727 77.2147 23.5625C77.6294 23.8523 78.1578 23.9972 78.7999 23.9972ZM88.013 30.9091V12.9091H91.0471V15.0739H91.226C91.3851 14.7557 91.6096 14.4176 91.8993 14.0597C92.1891 13.696 92.5811 13.3864 93.0755 13.1307C93.5698 12.8693 94.2005 12.7386 94.9675 12.7386C95.9789 12.7386 96.8908 12.9972 97.7033 13.5142C98.5215 14.0256 99.1692 14.7841 99.6465 15.7898C100.129 16.7898 100.371 18.017 100.371 19.4716C100.371 20.9091 100.135 22.1307 99.6635 23.1364C99.1919 24.142 98.5499 24.9091 97.7374 25.4375C96.9249 25.9659 96.0044 26.2301 94.976 26.2301C94.226 26.2301 93.6039 26.1051 93.1096 25.8551C92.6152 25.6051 92.2175 25.304 91.9164 24.9517C91.6209 24.5937 91.3908 24.2557 91.226 23.9375H91.0982V30.9091H88.013ZM91.0385 19.4545C91.0385 20.3011 91.1578 21.0426 91.3965 21.679C91.6408 22.3153 91.9902 22.8125 92.4448 23.1705C92.905 23.5227 93.4618 23.6989 94.1152 23.6989C94.7971 23.6989 95.3681 23.517 95.8283 23.1534C96.2885 22.7841 96.6351 22.2812 96.8681 21.6449C97.1067 21.0028 97.226 20.2727 97.226 19.4545C97.226 18.642 97.1096 17.9205 96.8766 17.2898C96.6436 16.6591 96.2971 16.1648 95.8368 15.8068C95.3766 15.4489 94.8027 15.2699 94.1152 15.2699C93.4561 15.2699 92.8965 15.4432 92.4363 15.7898C91.976 16.1364 91.6266 16.6222 91.388 17.2472C91.155 17.8722 91.0385 18.608 91.0385 19.4545ZM111.344 26H107.969L114.114 8.54545H118.017L124.171 26H120.796L116.134 12.125H115.997L111.344 26ZM111.455 19.1562H120.659V21.696H111.455V19.1562ZM129.419 18.3295V26H126.333V12.9091H129.282V15.1335H129.436C129.737 14.4006 130.217 13.8182 130.876 13.3864C131.541 12.9545 132.362 12.7386 133.339 12.7386C134.242 12.7386 135.029 12.9318 135.7 13.3182C136.376 13.7045 136.899 14.2642 137.268 14.9972C137.643 15.7301 137.828 16.6193 137.822 17.6648V26H134.737V18.142C134.737 17.267 134.509 16.5824 134.055 16.0881C133.606 15.5937 132.984 15.3466 132.188 15.3466C131.649 15.3466 131.169 15.4659 130.748 15.7045C130.333 15.9375 130.007 16.2756 129.768 16.7188C129.535 17.1619 129.419 17.6989 129.419 18.3295ZM142.407 30.9091C141.987 30.9091 141.597 30.875 141.24 30.8068C140.887 30.7443 140.606 30.6705 140.396 30.5852L141.112 28.1818C141.561 28.3125 141.961 28.375 142.313 28.3693C142.666 28.3636 142.975 28.2528 143.242 28.0369C143.515 27.8267 143.745 27.4744 143.933 26.9801L144.197 26.2727L139.45 12.9091H142.722L145.74 22.7955H145.876L148.901 12.9091H152.183L146.941 27.5852C146.697 28.2784 146.373 28.8722 145.97 29.3665C145.566 29.8665 145.072 30.2472 144.487 30.5085C143.907 30.7756 143.214 30.9091 142.407 30.9091ZM160.855 12.9091V15.2955H153.329V12.9091H160.855ZM155.187 9.77273H158.272V22.0625C158.272 22.4773 158.335 22.7955 158.46 23.017C158.59 23.233 158.761 23.3807 158.971 23.4602C159.181 23.5398 159.414 23.5795 159.67 23.5795C159.863 23.5795 160.039 23.5653 160.198 23.5369C160.363 23.5085 160.488 23.483 160.573 23.4602L161.093 25.8722C160.928 25.929 160.693 25.9915 160.386 26.0597C160.085 26.1278 159.715 26.1676 159.278 26.179C158.505 26.2017 157.809 26.0852 157.19 25.8295C156.57 25.5682 156.079 25.1648 155.715 24.6193C155.357 24.0739 155.181 23.392 155.187 22.5739V9.77273ZM166.801 18.3295V26H163.716V8.54545H166.733V15.1335H166.887C167.193 14.3949 167.668 13.8125 168.31 13.3864C168.958 12.9545 169.781 12.7386 170.781 12.7386C171.691 12.7386 172.483 12.929 173.159 13.3097C173.835 13.6903 174.358 14.2472 174.727 14.9801C175.102 15.7131 175.29 16.608 175.29 17.6648V26H172.205V18.142C172.205 17.2614 171.977 16.5767 171.523 16.0881C171.074 15.5937 170.443 15.3466 169.631 15.3466C169.085 15.3466 168.597 15.4659 168.165 15.7045C167.739 15.9375 167.404 16.2756 167.159 16.7188C166.921 17.1619 166.801 17.6989 166.801 18.3295ZM178.435 26V12.9091H181.52V26H178.435ZM179.986 11.0511C179.497 11.0511 179.077 10.8892 178.725 10.5653C178.372 10.2358 178.196 9.84091 178.196 9.38068C178.196 8.91477 178.372 8.51989 178.725 8.19602C179.077 7.86648 179.497 7.7017 179.986 7.7017C180.48 7.7017 180.901 7.86648 181.247 8.19602C181.6 8.51989 181.776 8.91477 181.776 9.38068C181.776 9.84091 181.6 10.2358 181.247 10.5653C180.901 10.8892 180.48 11.0511 179.986 11.0511ZM187.778 18.3295V26H184.693V12.9091H187.642V15.1335H187.795C188.096 14.4006 188.576 13.8182 189.235 13.3864C189.9 12.9545 190.721 12.7386 191.698 12.7386C192.602 12.7386 193.389 12.9318 194.059 13.3182C194.735 13.7045 195.258 14.2642 195.627 14.9972C196.002 15.7301 196.187 16.6193 196.181 17.6648V26H193.096V18.142C193.096 17.267 192.869 16.5824 192.414 16.0881C191.965 15.5937 191.343 15.3466 190.548 15.3466C190.008 15.3466 189.528 15.4659 189.107 15.7045C188.693 15.9375 188.366 16.2756 188.127 16.7188C187.894 17.1619 187.778 17.6989 187.778 18.3295ZM205.011 31.1818C203.903 31.1818 202.951 31.0313 202.156 30.7301C201.36 30.4347 200.721 30.0369 200.238 29.5369C199.755 29.0369 199.42 28.483 199.232 27.875L202.011 27.2017C202.136 27.4574 202.318 27.7102 202.556 27.9602C202.795 28.2159 203.116 28.4261 203.519 28.5909C203.928 28.7614 204.443 28.8466 205.062 28.8466C205.937 28.8466 206.661 28.6335 207.235 28.2074C207.809 27.7869 208.096 27.0938 208.096 26.1278V23.6477H207.943C207.784 23.9659 207.551 24.2926 207.244 24.6278C206.943 24.9631 206.542 25.2443 206.042 25.4716C205.548 25.6989 204.926 25.8125 204.176 25.8125C203.17 25.8125 202.258 25.5767 201.44 25.1051C200.627 24.6278 199.98 23.9176 199.497 22.9744C199.019 22.0256 198.781 20.8381 198.781 19.4119C198.781 17.9744 199.019 16.7614 199.497 15.7727C199.98 14.7784 200.63 14.0256 201.448 13.5142C202.267 12.9972 203.178 12.7386 204.184 12.7386C204.951 12.7386 205.582 12.8693 206.076 13.1307C206.576 13.3864 206.974 13.696 207.269 14.0597C207.565 14.4176 207.789 14.7557 207.943 15.0739H208.113V12.9091H211.156V26.2131C211.156 27.3324 210.889 28.2585 210.355 28.9915C209.82 29.7244 209.09 30.2727 208.164 30.6364C207.238 31 206.187 31.1818 205.011 31.1818ZM205.036 23.392C205.69 23.392 206.247 23.233 206.707 22.9148C207.167 22.5966 207.517 22.1392 207.755 21.5426C207.994 20.946 208.113 20.2301 208.113 19.3949C208.113 18.571 207.994 17.8494 207.755 17.2301C207.522 16.6108 207.176 16.1307 206.715 15.7898C206.261 15.4432 205.701 15.2699 205.036 15.2699C204.349 15.2699 203.775 15.4489 203.315 15.8068C202.855 16.1648 202.508 16.6562 202.275 17.2812C202.042 17.9006 201.926 18.6051 201.926 19.3949C201.926 20.196 202.042 20.8977 202.275 21.5C202.514 22.0966 202.863 22.5625 203.323 22.8977C203.789 23.2273 204.36 23.392 205.036 23.392Z" fill="url(#paint0_linear_1334_425)"/>
<defs>
<linearGradient id="paint0_linear_1334_425" x1="10.5942" y1="3.72612e-07" x2="190.414" y2="83.5489" gradientUnits="userSpaceOnUse">
<stop stop-color="#95ED7F"/>
<stop offset="0.427885" stop-color="#7DDA7D"/>
<stop offset="1" stop-color="white"/>
</linearGradient>
<clipPath id="clip0_1334_425">
<rect width="30.4348" height="28" fill="white" transform="translate(0 3)"/>
</clipPath>
</defs>
</svg>
