<svg width="244" height="224" viewBox="0 0 244 224" fill="none" xmlns="http://www.w3.org/2000/svg">
<path d="M201.863 123.041C213.162 123.041 218.727 136.705 210.619 144.526L135.889 216.598C130.972 221.34 124.384 224 117.524 224H31.0351C19.736 224 14.1709 210.336 22.2792 202.514L96.9995 130.442C101.926 125.692 108.514 123.041 115.365 123.041H201.863Z" fill="#95ED7F" fill-opacity="0.8"/>
<path d="M204.32 60.4648C215.609 60.4648 221.184 74.1288 213.066 81.9595L139.444 152.968C133.823 158.39 126.287 161.433 118.441 161.433H33.4823C22.1926 161.433 16.6181 147.769 24.7264 139.948L99.4561 67.8662C104.383 63.1248 110.962 60.4648 117.822 60.4648H204.32Z" fill="#95ED7F" fill-opacity="0.8"/>
<path d="M201.863 0C213.162 0 218.727 13.664 210.619 21.4853L135.889 93.5573C130.972 98.308 124.384 100.959 117.524 100.959H31.0351C19.736 100.959 14.1709 87.2947 22.2792 79.4733L96.9995 7.40133C101.926 2.65067 108.514 0 115.365 0H201.863Z" fill="#95ED7F" fill-opacity="0.8"/>
</svg>
